<?xml version="1.0" encoding="UTF-8"?><svg enable-background="new 0 0 1140 50" version="1.1" x="0px" y="0px" width="1140" height="50" viewBox="0 0 1140 50" xml:space="preserve" xmlns="http://www.w3.org/2000/svg"><rect x="-.7" y="-.1" width="1141.5" height="50.2" fill="#A2D2F3"/><path d="m232.1 50.1z" fill="none"/><polygon points="253.8 -0.1 253.8 -0.1 253.8 1" fill="none"/><linearGradient id="j" x1="8569.8" x2="3817" y1="-41.704" y2="-41.704" gradientTransform="matrix(.087719 0 0 -.087719 475.3 30.474)" gradientUnits="userSpaceOnUse"><stop stop-color="#83C9F0" offset="0"/><stop stop-color="#BCDFF7" offset="1"/></linearGradient><polygon points="1032.3 18.2 1018.6 50.1 1140.7 50.1 1140.7 18.2" fill="url(#j)"/><linearGradient id="a" x1="-519.68" x2="-2779.4" y1="62.4" y2="62.4" gradientTransform="matrix(.087719 0 0 -.087719 475.3 30.474)" gradientUnits="userSpaceOnUse"><stop stop-color="#A1D2F2" offset="0"/><stop stop-color="#BCDFF7" offset="1"/></linearGradient><polygon points="253.8 -0.1 253.8 1 240.1 33 232.1 50.1 232.1 50.1 232.1 50.1 240.1 33" fill="url(#a)"/><polygon points="419.3 18.2 427.3 -0.1 253.8 -0.1 232.1 50.1 344 50.1 357.7 18.2" fill="url(#a)"/><polygon points="669.3 18.2 677.3 -0.1 578 -0.1 571.1 18.2" fill="#BCDFF7"/><linearGradient id="h" x1="6344.1" x2="3936.7" y1="-41.704" y2="-41.704" gradientTransform="matrix(.087719 0 0 -.087719 475.3 30.474)" gradientUnits="userSpaceOnUse"><stop stop-color="#76BDE9" offset="0"/><stop stop-color="#A1D2F2" offset="1"/></linearGradient><polygon points="834.8 18.2 821.1 50.1 1018.6 50.1 1032.3 18.2" fill="url(#h)"/><linearGradient id="g" x1="2215.4" x2="4214.2" y1="244.58" y2="244.58" gradientTransform="matrix(.087719 0 0 -.087719 475.3 30.474)" gradientUnits="userSpaceOnUse"><stop stop-color="#A1D2F2" offset="0"/><stop stop-color="#83C9F0" offset="1"/></linearGradient><polygon points="834.8 18.2 842.8 -0.1 677.3 -0.1 669.3 18.2" fill="url(#g)"/><linearGradient id="f" x1="1200.1" x2="-632.46" y1="244.58" y2="244.58" gradientTransform="matrix(.087719 0 0 -.087719 475.3 30.474)" gradientUnits="userSpaceOnUse"><stop stop-color="#63B8E8" offset="0"/><stop stop-color="#70BEEB" offset=".3639"/><stop stop-color="#90CDF1" offset="1"/></linearGradient><polygon points="571.1 18.2 578 -0.1 427.3 -0.1 419.3 18.2" fill="url(#f)"/><linearGradient id="e" x1="8796.4" x2="4216.6" y1="244.58" y2="244.58" gradientTransform="matrix(.087719 0 0 -.087719 475.3 30.474)" gradientUnits="userSpaceOnUse"><stop stop-color="#76BDE9" offset="0"/><stop stop-color="#7CC0EA" offset=".2111"/><stop stop-color="#8DC8EE" offset=".4946"/><stop stop-color="#A9D6F3" offset=".8179"/><stop stop-color="#BCDFF7" offset="1"/></linearGradient><polygon points="1140.7 18.2 1140.7 -0.1 1039.1 -0.1 1032.3 18.2" fill="url(#e)"/><linearGradient id="d" x1="4101.1" x2="6456.7" y1="244.58" y2="244.58" gradientTransform="matrix(.087719 0 0 -.087719 475.3 30.474)" gradientUnits="userSpaceOnUse"><stop stop-color="#76BDE9" offset="0"/><stop stop-color="#63B8E8" offset="1"/></linearGradient><polygon points="1032.3 18.2 1039.1 -0.1 842.8 -0.1 834.8 18.2" fill="url(#d)"/><linearGradient id="c" x1="-632.62" x2="-1508" y1="-41.704" y2="-41.704" gradientTransform="matrix(.087719 0 0 -.087719 475.3 30.474)" gradientUnits="userSpaceOnUse"><stop stop-color="#8EC4EB" offset="0"/><stop stop-color="#A1D2F2" offset="1"/></linearGradient><polygon points="357.7 18.2 344 50.1 406.8 50.1 419.3 18.2" fill="url(#c)"/><linearGradient id="p" x1="922.46" x2="2215.5" y1="-41.704" y2="-41.704" gradientTransform="matrix(.087719 0 0 -.087719 475.3 30.474)" gradientUnits="userSpaceOnUse"><stop stop-color="#83C9F0" offset="0"/><stop stop-color="#76BDE9" offset="1"/></linearGradient><polygon points="571.1 18.2 557.4 50.1 656.8 50.1 669.3 18.2" fill="url(#p)"/><linearGradient id="o" x1="4101.1" x2="2050.2" y1="-41.704" y2="-41.704" gradientTransform="matrix(.087719 0 0 -.087719 475.3 30.474)" gradientUnits="userSpaceOnUse"><stop stop-color="#63B8E8" offset="0"/><stop stop-color="#76BDE9" offset="1"/></linearGradient><polygon points="669.3 18.2 656.8 50.1 821.1 50.1 834.8 18.2" fill="url(#o)"/><linearGradient id="n" x1="1087.6" x2="-797.02" y1="-41.704" y2="-41.704" gradientTransform="matrix(.087719 0 0 -.087719 475.3 30.474)" gradientUnits="userSpaceOnUse"><stop stop-color="#76BDE9" offset="0"/><stop stop-color="#76BDE9" offset="1"/></linearGradient><polygon points="419.3 18.2 406.8 50.1 557.4 50.1 571.1 18.2" fill="url(#n)"/><linearGradient id="m" x1="-2501.7" x2="-7925.7" y1="62.4" y2="62.4" gradientTransform="matrix(.087719 0 0 -.087719 475.3 30.474)" gradientUnits="userSpaceOnUse"><stop stop-color="#A1D2F2" offset="0"/><stop stop-color="#BCDFF7" offset="1"/></linearGradient><polygon points="253.8 1 253.8 -0.1 -0.7 -0.1 -0.7 50.1 232.1 50.1 232.1 50.1" fill="url(#m)"/><linearGradient id="l" x1="-519.68" x2="-2779.4" y1="55.893" y2="55.893" gradientTransform="matrix(.087719 0 0 -.087719 475.3 30.474)" gradientUnits="userSpaceOnUse"><stop stop-color="#A1D2F2" offset="0"/><stop stop-color="#BCDFF7" offset="1"/></linearGradient><polygon points="240.1 33 253.8 1 232.1 50.1" fill="url(#l)"/><linearGradient id="k" x1="-2501.7" x2="-7925.7" y1="55.893" y2="55.893" gradientTransform="matrix(.087719 0 0 -.087719 475.3 30.474)" gradientUnits="userSpaceOnUse"><stop stop-color="#A1D2F2" offset="0"/><stop stop-color="#BCDFF7" offset="1"/></linearGradient><polygon points="240.1 33 253.8 1 232.1 50.1" fill="url(#k)"/><linearGradient id="b" x1="-2525" x2="-2525" y1="348.68" y2="348.68" gradientTransform="matrix(.087719 0 0 -.087719 475.3 30.474)" gradientUnits="userSpaceOnUse"><stop stop-color="#A1D2F2" offset="0"/><stop stop-color="#BCDFF7" offset="1"/></linearGradient><path d="m253.8-0.1z" fill="url(#b)"/><path d="m253.8-0.1z" fill="url(#b)"/><polygon points="253.8 -0.1 240.1 33 232.1 50.1 232.1 50.1" fill="url(#a)"/><polygon points="253.8 -0.1 240.1 33 232.1 50.1 232.1 50.1" fill="url(#a)"/><linearGradient id="i" x1="-2501.8" x2="-7920.5" y1="62.4" y2="62.4" gradientTransform="matrix(.087719 0 0 -.087719 475.3 30.474)" gradientUnits="userSpaceOnUse"><stop stop-color="#A1D2F2" offset="0"/><stop stop-color="#BCDFF7" offset="1"/></linearGradient><polygon points="253.8 -0.1 240.1 33 232.1 50.1 232.1 50.1" fill="url(#i)"/><polygon points="-0.7 -0.1 677.3 -0.1 655.3 50.1 -0.7 50.1" fill="#4AA0C6" opacity=".6"/><polyline points="-0.7 -0.1 578.4 -0.1 557.4 50.1 -0.7 50.1" fill="#4AA0C6" opacity=".1"/><polyline points="-0.7 -0.1 427.3 -0.1 406.6 50.1 -0.7 50.1" fill="#4AA0C6"/></svg>
