<svg xmlns="http://www.w3.org/2000/svg" id="Layer_1" viewBox="0 0 1140 50" width="1140" height="50" style="enable-background:new 0 0 1140 50;version:1"><style>.a{display:none;}.b{stop-color:#FAB900;}.c{stop-color:#FFF164;}.d{stop-color:#FBC719;}.e{stop-color:#FABB03;}.f{stop-color:#FEEA57;}.g{fill:#00993F;}.h{stop-color:#04A54A;}.i{stop-color:#00993F;}.j{stop-color:#007B3D;}.k{stop-color:#009C3D;}.l{stop-color:#00843E;}.m{stop-color:#00713C;}.n{fill:none;}.o{stop-color:#83C9F0;}.p{stop-color:#BCDFF7;}.q{stop-color:#A1D2F2;}.r{stop-color:#76BDE9;}.s{stop-color:#63B8E8;}.t{stop-color:#ED7203;}.u{stop-color:#F29232;}.v{stop-color:#E95A0C;}.w{stop-color:#EB6608;}.x{stop-color:#E8550D;}.y{stop-color:#EA6111;}.z{stop-color:#EE7C23;}.A{stop-color:#F18C2E;}.B{stop-color:#C00B25;}.C{stop-color:#E6333F;}.D{stop-color:#D2072A;}.E{stop-color:#AE0D21;}.F{stop-color:#A50D1F;}.G{stop-color:#C90928;}.H{stop-color:#B70C23;}.I{fill:#944090;}.J{stop-color:#944090;}.K{stop-color:#71196F;}.L{stop-color:#8B358A;}.M{fill:#79237B;}.N{stop-color:#79237B;}</style><g id="gul" class="a"><linearGradient id="_x2D_----_7_" gradientUnits="userSpaceOnUse" y1="25" x2="1140" y2="25"><stop offset="0" class="b"/><stop offset="1" class="c"/></linearGradient><rect id="_x2D_----_6_" width="1140" height="50" fill="url(#_x2D_----_7_)"/><linearGradient id="SVGID_1_" gradientUnits="userSpaceOnUse" x1="1225.7" y1="34" x2="809.3" y2="34"><stop offset="0" class="b"/><stop offset="0.1504" class="d"/><stop offset="0.3848" stop-color="#FDD93A"/><stop offset="0.61" stop-color="#FEE651"/><stop offset="0.8201" stop-color="#FFEE5F"/><stop offset="1" class="c"/></linearGradient><polygon points="1030.7 18 1017.3 50 1140 50 1140 18 " fill="url(#SVGID_1_)"/><linearGradient id="SVGID_2_" gradientUnits="userSpaceOnUse" x1="429.4" y1="25" x2="231.4" y2="25"><stop offset="0" class="b"/><stop offset="0.1661" stop-color="#FABD07"/><stop offset="0.4019" class="d"/><stop offset="0.6792" stop-color="#FDD838"/><stop offset="0.986" stop-color="#FFF062"/><stop offset="1" class="c"/></linearGradient><polygon points="419.5 18 427 0 253.4 0 239.6 32.9 232.5 50 343.8 50 357.3 18 " fill="url(#SVGID_2_)"/><linearGradient id="SVGID_3_" gradientUnits="userSpaceOnUse" x1="570.2" y1="9" x2="678.9" y2="9"><stop offset="0" class="c"/><stop offset="1" class="b"/></linearGradient><polygon points="669 18 676.5 0 577.7 0 570.2 18 " fill="url(#SVGID_3_)"/><linearGradient id="SVGID_4_" gradientUnits="userSpaceOnUse" x1="1030.7" y1="34" x2="819.8" y2="34"><stop offset="0" class="b"/><stop offset="1" class="c"/></linearGradient><polygon points="834.2 18 820.8 50 1017.3 50 1030.7 18 " fill="url(#SVGID_4_)"/><linearGradient id="SVGID_5_" gradientUnits="userSpaceOnUse" x1="669" y1="9" x2="844.1" y2="9"><stop offset="0" class="b"/><stop offset="1" class="c"/></linearGradient><polygon points="834.2 18 841.8 0 676.5 0 669 18 " fill="url(#SVGID_5_)"/><linearGradient id="SVGID_6_" gradientUnits="userSpaceOnUse" x1="580.1" y1="9" x2="419.5" y2="9"><stop offset="0" class="b"/><stop offset="1" class="c"/></linearGradient><polygon points="570.2 18 577.7 0 427 0 419.5 18 " fill="url(#SVGID_6_)"/><linearGradient id="SVGID_7_" gradientUnits="userSpaceOnUse" x1="1245.5" y1="9" x2="844.3" y2="9"><stop offset="0" class="b"/><stop offset="1" class="c"/></linearGradient><polygon points="1140 18 1140 0 1038.2 0 1030.7 18 " fill="url(#SVGID_7_)"/><linearGradient id="SVGID_8_" gradientUnits="userSpaceOnUse" x1="834.2" y1="9" x2="1040.6" y2="9"><stop offset="0" class="b"/><stop offset="1" class="c"/></linearGradient><polygon points="1030.7 18 1038.2 0 841.8 0 834.2 18 " fill="url(#SVGID_8_)"/><linearGradient id="SVGID_9_" gradientUnits="userSpaceOnUse" x1="419.5" y1="34" x2="342.8" y2="34"><stop offset="0" class="b"/><stop offset="0.2312" class="e"/><stop offset="0.4248" stop-color="#FBC10E"/><stop offset="0.6047" stop-color="#FCCA1F"/><stop offset="0.7763" stop-color="#FDD837"/><stop offset="0.9406" class="f"/><stop offset="1" class="c"/></linearGradient><polygon points="357.3 18 343.8 50 406.1 50 419.5 18 " fill="url(#SVGID_9_)"/><linearGradient id="SVGID_10_" gradientUnits="userSpaceOnUse" x1="555.7" y1="34" x2="669" y2="34"><stop offset="0" class="b"/><stop offset="1" class="c"/></linearGradient><polygon points="570.2 18 556.8 50 655.6 50 669 18 " fill="url(#SVGID_10_)"/><linearGradient id="SVGID_11_" gradientUnits="userSpaceOnUse" x1="834.2" y1="34" x2="654.6" y2="34"><stop offset="0" class="b"/><stop offset="1" class="c"/></linearGradient><polygon points="669 18 655.6 50 820.8 50 834.2 18 " fill="url(#SVGID_11_)"/><linearGradient id="SVGID_12_" gradientUnits="userSpaceOnUse" x1="570.2" y1="34" x2="405.1" y2="34"><stop offset="0" class="b"/><stop offset="0.2445" class="e"/><stop offset="0.4361" stop-color="#FBC00D"/><stop offset="0.6097" stop-color="#FBCA1E"/><stop offset="0.7727" stop-color="#FDD735"/><stop offset="0.9268" stop-color="#FEE753"/><stop offset="1" class="c"/></linearGradient><polygon points="419.5 18 406.1 50 556.8 50 570.2 18 " fill="url(#SVGID_12_)"/><linearGradient id="SVGID_13_" gradientUnits="userSpaceOnUse" x1="255.8" y1="25" x2="-219.4" y2="25"><stop offset="0" class="b"/><stop offset="7.322460e-02" stop-color="#FBC311"/><stop offset="0.2273" stop-color="#FCD32F"/><stop offset="0.3903" stop-color="#FEE046"/><stop offset="0.5639" class="f"/><stop offset="0.7555" stop-color="#FFEF61"/><stop offset="1" class="c"/></linearGradient><polygon points="253.4 0 0 0 0 50 232.5 50 239.6 32.9 " fill="url(#SVGID_13_)"/></g><g id="v4" class="a"><rect id="_x2D_----_4_" width="1140" height="50" fill="#00993E"/><polygon points="1031.2 18 1017.7 50 1140 50 1140 18 " class="g"/><linearGradient id="SVGID_14_" gradientUnits="userSpaceOnUse" x1="1226.1" y1="34" x2="809.8" y2="34"><stop offset="0" stop-color="#00803D"/><stop offset="1" class="h"/></linearGradient><polygon points="1031.2 18 1017.7 50 1140 50 1140 18 " fill="url(#SVGID_14_)"/><polygon points="420 18 427.5 0 253.8 0 240.1 32.9 232.9 50 344.3 50 357.7 18 " class="g"/><linearGradient id="SVGID_15_" gradientUnits="userSpaceOnUse" x1="429.8" y1="25" x2="231.9" y2="25"><stop offset="0" class="i"/><stop offset="1" class="h"/></linearGradient><polygon points="420 18 427.5 0 253.8 0 240.1 32.9 232.9 50 344.3 50 357.7 18 " fill="url(#SVGID_15_)"/><polygon points="669.5 18 677 0 578.1 0 570.6 18 " class="g"/><linearGradient id="SVGID_16_" gradientUnits="userSpaceOnUse" x1="570.6" y1="9" x2="679.3" y2="9"><stop offset="0" stop-color="#17A14A"/><stop offset="1" stop-color="#00953E"/></linearGradient><polygon points="669.5 18 677 0 578.1 0 570.6 18 " fill="url(#SVGID_16_)"/><polygon points="834.7 18 821.3 50 1017.7 50 1031.2 18 " class="g"/><linearGradient id="SVGID_17_" gradientUnits="userSpaceOnUse" x1="1031.2" y1="34" x2="820.2" y2="34"><stop offset="0" class="j"/><stop offset="1" class="k"/></linearGradient><polygon points="834.7 18 821.3 50 1017.7 50 1031.2 18 " fill="url(#SVGID_17_)"/><polygon points="834.7 18 842.2 0 677 0 669.5 18 " class="g"/><linearGradient id="SVGID_18_" gradientUnits="userSpaceOnUse" x1="669.5" y1="9" x2="844.6" y2="9"><stop offset="0" stop-color="#00763C"/><stop offset="1" class="i"/></linearGradient><polygon points="834.7 18 842.2 0 677 0 669.5 18 " fill="url(#SVGID_18_)"/><polygon points="570.6 18 578.1 0 427.5 0 420 18 " class="g"/><linearGradient id="SVGID_19_" gradientUnits="userSpaceOnUse" x1="580.5" y1="9" x2="420" y2="9"><stop offset="0" class="l"/><stop offset="1" stop-color="#009140"/></linearGradient><polygon points="570.6 18 578.1 0 427.5 0 420 18 " fill="url(#SVGID_19_)"/><polygon points="1140 18 1140 0 1038.7 0 1031.2 18 " class="g"/><linearGradient id="SVGID_20_" gradientUnits="userSpaceOnUse" x1="1246" y1="9" x2="844.8" y2="9"><stop offset="0" class="j"/><stop offset="1" class="i"/></linearGradient><polygon points="1140 18 1140 0 1038.7 0 1031.2 18 " fill="url(#SVGID_20_)"/><polygon points="1031.2 18 1038.7 0 842.2 0 834.7 18 " class="g"/><linearGradient id="SVGID_21_" gradientUnits="userSpaceOnUse" x1="834.7" y1="9" x2="1041" y2="9"><stop offset="0" class="l"/><stop offset="1" class="m"/></linearGradient><polygon points="1031.2 18 1038.7 0 842.2 0 834.7 18 " fill="url(#SVGID_21_)"/><polygon points="357.7 18 344.3 50 406.5 50 420 18 " class="g"/><linearGradient id="SVGID_22_" gradientUnits="userSpaceOnUse" x1="420" y1="34" x2="343.3" y2="34"><stop offset="0" class="j"/><stop offset="1" class="k"/></linearGradient><polygon points="357.7 18 344.3 50 406.5 50 420 18 " fill="url(#SVGID_22_)"/><polygon points="570.6 18 557.2 50 656 50 669.5 18 " class="g"/><linearGradient id="SVGID_23_" gradientUnits="userSpaceOnUse" x1="556.2" y1="34" x2="669.5" y2="34"><stop offset="0" stop-color="#008D3F"/><stop offset="1" class="j"/></linearGradient><polygon points="570.6 18 557.2 50 656 50 669.5 18 " fill="url(#SVGID_23_)"/><polygon points="669.5 18 656 50 821.3 50 834.7 18 " class="g"/><linearGradient id="SVGID_24_" gradientUnits="userSpaceOnUse" x1="834.7" y1="34" x2="655" y2="34"><stop offset="0" class="l"/><stop offset="1" class="m"/></linearGradient><polygon points="669.5 18 656 50 821.3 50 834.7 18 " fill="url(#SVGID_24_)"/><polygon points="420 18 406.5 50 557.2 50 570.6 18 " class="g"/><linearGradient id="SVGID_25_" gradientUnits="userSpaceOnUse" x1="570.6" y1="34" x2="405.5" y2="34"><stop offset="0" class="j"/><stop offset="1" stop-color="#00783D"/></linearGradient><polygon points="420 18 406.5 50 557.2 50 570.6 18 " fill="url(#SVGID_25_)"/><polygon points="253.8 0 0 0 0 50 232.9 50 240.1 32.9 " class="g"/><linearGradient id="SVGID_26_" gradientUnits="userSpaceOnUse" x1="256.2" y1="25" x2="-219" y2="25"><stop offset="0" class="l"/><stop offset="1" stop-color="#44AD52"/></linearGradient><polygon points="253.8 0 0 0 0 50 232.9 50 240.1 32.9 " fill="url(#SVGID_26_)"/></g><g id="v5" class="a"><rect id="_x2D_----_5_" width="1140" height="50" fill="#A2D2F3"/><polygon points="232.9 50 232.9 50 233.1 49.7 " class="n"/><polygon points="253.8 0.1 253.9 0 253.7 0.5 " class="n"/><linearGradient id="SVGID_27_" gradientUnits="userSpaceOnUse" x1="1226.2" y1="34" x2="809.8" y2="34"><stop offset="0" class="o"/><stop offset="1" class="p"/></linearGradient><polygon points="1031.2 18 1017.8 50 1140 50 1140 18 " fill="url(#SVGID_27_)"/><linearGradient id="SVGID_28_" gradientUnits="userSpaceOnUse" x1="429.9" y1="25.1" x2="231.9" y2="25.1"><stop offset="0" class="q"/><stop offset="1" class="p"/></linearGradient><polygon points="253.8 0.1 253.7 0.5 240.1 32.9 233.1 49.7 232.9 50 233 50 240.1 32.9 " fill="url(#SVGID_28_)"/><linearGradient id="SVGID_29_" gradientUnits="userSpaceOnUse" x1="429.9" y1="25" x2="231.9" y2="25"><stop offset="0" class="q"/><stop offset="1" class="p"/></linearGradient><polygon points="420 18 427.5 0 253.9 0 233 50 344.3 50 357.8 18 " fill="url(#SVGID_29_)"/><polygon points="669.5 18 677 0 578.2 0 570.7 18 " fill="#BCDFF7"/><linearGradient id="SVGID_30_" gradientUnits="userSpaceOnUse" x1="1031.2" y1="34" x2="820.3" y2="34"><stop offset="0" class="r"/><stop offset="1" class="q"/></linearGradient><polygon points="834.7 18 821.3 50 1017.8 50 1031.2 18 " fill="url(#SVGID_30_)"/><linearGradient id="SVGID_31_" gradientUnits="userSpaceOnUse" x1="669.5" y1="9" x2="844.6" y2="9"><stop offset="0" class="q"/><stop offset="1" class="o"/></linearGradient><polygon points="834.7 18 842.2 0 677 0 669.5 18 " fill="url(#SVGID_31_)"/><linearGradient id="SVGID_32_" gradientUnits="userSpaceOnUse" x1="580.6" y1="9" x2="420" y2="9"><stop offset="0" class="s"/><stop offset="0.3639" stop-color="#70BEEB"/><stop offset="1" stop-color="#90CDF1"/></linearGradient><polygon points="570.7 18 578.2 0 427.5 0 420 18 " fill="url(#SVGID_32_)"/><linearGradient id="SVGID_33_" gradientUnits="userSpaceOnUse" x1="1246" y1="9" x2="844.8" y2="9"><stop offset="0" class="r"/><stop offset="0.2111" stop-color="#7CC0EA"/><stop offset="0.4946" stop-color="#8DC8EE"/><stop offset="0.8179" stop-color="#A9D6F3"/><stop offset="1" class="p"/></linearGradient><polygon points="1140 18 1140 0 1038.7 0 1031.2 18 " fill="url(#SVGID_33_)"/><linearGradient id="SVGID_34_" gradientUnits="userSpaceOnUse" x1="834.7" y1="9" x2="1041.1" y2="9"><stop offset="0" class="r"/><stop offset="1" class="s"/></linearGradient><polygon points="1031.2 18 1038.7 0 842.2 0 834.7 18 " fill="url(#SVGID_34_)"/><linearGradient id="SVGID_35_" gradientUnits="userSpaceOnUse" x1="420" y1="34" x2="343.3" y2="34"><stop offset="0" stop-color="#8EC4EB"/><stop offset="1" class="q"/></linearGradient><polygon points="357.8 18 344.3 50 406.6 50 420 18 " fill="url(#SVGID_35_)"/><linearGradient id="SVGID_36_" gradientUnits="userSpaceOnUse" x1="556.2" y1="34" x2="669.5" y2="34"><stop offset="0" class="o"/><stop offset="1" class="r"/></linearGradient><polygon points="570.7 18 557.2 50 656.1 50 669.5 18 " fill="url(#SVGID_36_)"/><linearGradient id="SVGID_37_" gradientUnits="userSpaceOnUse" x1="834.7" y1="34" x2="655.1" y2="34"><stop offset="0" class="s"/><stop offset="1" class="r"/></linearGradient><polygon points="669.5 18 656.1 50 821.3 50 834.7 18 " fill="url(#SVGID_37_)"/><linearGradient id="SVGID_38_" gradientUnits="userSpaceOnUse" x1="570.7" y1="34" x2="405.6" y2="34"><stop offset="0" class="r"/><stop offset="1" class="r"/></linearGradient><polygon points="420 18 406.6 50 557.2 50 570.7 18 " fill="url(#SVGID_38_)"/><linearGradient id="SVGID_39_" gradientUnits="userSpaceOnUse" x1="256.3" y1="25" x2="-218.9" y2="25"><stop offset="0" class="q"/><stop offset="1" class="p"/></linearGradient><polygon points="253.7 0.5 253.9 0 0 0 0 50 232.9 50 233.1 49.7 " fill="url(#SVGID_39_)"/><linearGradient id="SVGID_40_" gradientUnits="userSpaceOnUse" x1="429.9" y1="25.1" x2="231.9" y2="25.1"><stop offset="0" class="q"/><stop offset="1" class="p"/></linearGradient><polygon points="240.1 32.9 253.7 0.5 233.1 49.7 " fill="url(#SVGID_40_)"/><linearGradient id="SVGID_41_" gradientUnits="userSpaceOnUse" x1="256.3" y1="25.1" x2="-218.9" y2="25.1"><stop offset="0" class="q"/><stop offset="1" class="p"/></linearGradient><polygon points="240.1 32.9 253.7 0.5 233.1 49.7 " fill="url(#SVGID_41_)"/><linearGradient id="SVGID_42_" gradientUnits="userSpaceOnUse" x1="429.9" y1="0.1" x2="231.9" y2="0.1"><stop offset="0" class="q"/><stop offset="1" class="p"/></linearGradient><polygon points="253.9 0 253.9 0 253.8 0.1 " fill="url(#SVGID_42_)"/><linearGradient id="SVGID_43_" gradientUnits="userSpaceOnUse" x1="256.3" y1="0.1" x2="-146.6" y2="0.1"><stop offset="0" class="q"/><stop offset="1" class="p"/></linearGradient><polygon points="253.9 0 253.9 0 253.8 0.1 " fill="url(#SVGID_43_)"/><linearGradient id="SVGID_44_" gradientUnits="userSpaceOnUse" x1="429.9" y1="25" x2="231.9" y2="25"><stop offset="0" class="q"/><stop offset="1" class="p"/></linearGradient><polygon points="253.8 0.1 240.1 32.9 233 50 233 50 253.9 0 " fill="url(#SVGID_44_)"/><linearGradient id="SVGID_45_" gradientUnits="userSpaceOnUse" x1="429.9" y1="25" x2="231.9" y2="25"><stop offset="0" class="q"/><stop offset="1" class="p"/></linearGradient><polygon points="253.8 0.1 240.1 32.9 233 50 233 50 253.9 0 " fill="url(#SVGID_45_)"/><linearGradient id="SVGID_46_" gradientUnits="userSpaceOnUse" x1="256.3" y1="25" x2="-218.5" y2="25"><stop offset="0" class="q"/><stop offset="1" class="p"/></linearGradient><polygon points="253.8 0.1 240.1 32.9 233 50 233 50 253.9 0 " fill="url(#SVGID_46_)"/></g><g id="v64"><rect id="_x2D_----_3_" width="1140" height="50" fill="#EC6607"/><linearGradient id="SVGID_47_" gradientUnits="userSpaceOnUse" x1="1226.2" y1="34" x2="809.8" y2="34"><stop offset="0" class="t"/><stop offset="1" class="u"/></linearGradient><polygon points="1031.2 18 1017.8 50 1140 50 1140 18 " fill="url(#SVGID_47_)"/><linearGradient id="SVGID_48_" gradientUnits="userSpaceOnUse" x1="429.9" y1="25" x2="231.9" y2="25"><stop offset="0" class="t"/><stop offset="1" class="u"/></linearGradient><polygon points="253.9 0 240.1 32.9 233 50 233 50 240.1 32.9 " fill="url(#SVGID_48_)"/><linearGradient id="SVGID_49_" gradientUnits="userSpaceOnUse" x1="429.9" y1="25" x2="231.9" y2="25"><stop offset="0" class="t"/><stop offset="1" class="u"/></linearGradient><polygon points="420 18 427.5 0 253.9 0 233 50 344.4 50 357.8 18 " fill="url(#SVGID_49_)"/><linearGradient id="SVGID_50_" gradientUnits="userSpaceOnUse" x1="570.7" y1="9" x2="679.4" y2="9"><stop offset="0" class="u"/><stop offset="1" class="t"/></linearGradient><polygon points="669.5 18 677 0 578.2 0 570.7 18 " fill="url(#SVGID_50_)"/><linearGradient id="SVGID_51_" gradientUnits="userSpaceOnUse" x1="1031.2" y1="34" x2="820.3" y2="34"><stop offset="0" class="v"/><stop offset="0.6458" stop-color="#EA600A"/><stop offset="1" class="w"/></linearGradient><polygon points="834.7 18 821.3 50 1017.8 50 1031.2 18 " fill="url(#SVGID_51_)"/><linearGradient id="SVGID_52_" gradientUnits="userSpaceOnUse" x1="669.5" y1="9" x2="844.6" y2="9"><stop offset="0" class="w"/><stop offset="1" class="v"/></linearGradient><polygon points="834.7 18 842.3 0 677 0 669.5 18 " fill="url(#SVGID_52_)"/><linearGradient id="SVGID_53_" gradientUnits="userSpaceOnUse" x1="580.6" y1="9" x2="420" y2="9"><stop offset="0" class="v"/><stop offset="0.3863" stop-color="#EA610A"/><stop offset="1" class="w"/></linearGradient><polygon points="570.7 18 578.2 0 427.5 0 420 18 " fill="url(#SVGID_53_)"/><linearGradient id="SVGID_54_" gradientUnits="userSpaceOnUse" x1="1246" y1="9" x2="844.8" y2="9"><stop offset="0" class="v"/><stop offset="1" class="w"/></linearGradient><polygon points="1140 18 1140 0 1038.7 0 1031.2 18 " fill="url(#SVGID_54_)"/><linearGradient id="SVGID_55_" gradientUnits="userSpaceOnUse" x1="834.7" y1="9" x2="1041.1" y2="9"><stop offset="0" class="x"/><stop offset="1" class="x"/></linearGradient><polygon points="1031.2 18 1038.7 0 842.3 0 834.7 18 " fill="url(#SVGID_55_)"/><linearGradient id="SVGID_56_" gradientUnits="userSpaceOnUse" x1="420" y1="34" x2="343.3" y2="34"><stop offset="0" class="w"/><stop offset="1" class="t"/></linearGradient><polygon points="357.8 18 344.4 50 406.6 50 420 18 " fill="url(#SVGID_56_)"/><linearGradient id="SVGID_57_" gradientUnits="userSpaceOnUse" x1="556.2" y1="34" x2="669.5" y2="34"><stop offset="0" class="t"/><stop offset="1" class="v"/></linearGradient><polygon points="570.7 18 557.3 50 656.1 50 669.5 18 " fill="url(#SVGID_57_)"/><linearGradient id="SVGID_58_" gradientUnits="userSpaceOnUse" x1="834.7" y1="34" x2="655.1" y2="34"><stop offset="0" stop-color="#E74E0F"/><stop offset="1" class="v"/></linearGradient><polygon points="669.5 18 656.1 50 821.3 50 834.7 18 " fill="url(#SVGID_58_)"/><linearGradient id="SVGID_59_" gradientUnits="userSpaceOnUse" x1="570.7" y1="34" x2="405.6" y2="34"><stop offset="0" class="x"/><stop offset="1" stop-color="#EA6109"/></linearGradient><polygon points="420 18 406.6 50 557.3 50 570.7 18 " fill="url(#SVGID_59_)"/><linearGradient id="SVGID_60_" gradientUnits="userSpaceOnUse" x1="256.3" y1="25" x2="-218.9" y2="25"><stop offset="0" class="v"/><stop offset="7.964253e-02" class="y"/><stop offset="0.438" class="z"/><stop offset="0.7563" class="A"/><stop offset="1" class="u"/></linearGradient><polygon points="0 0 0 50 233 50 253.9 0 " fill="url(#SVGID_60_)"/><linearGradient id="SVGID_61_" gradientUnits="userSpaceOnUse" x1="429.9" y1="25" x2="231.9" y2="25"><stop offset="0" class="t"/><stop offset="1" class="u"/></linearGradient><polygon points="253.9 0 233 50 240.1 32.9 " fill="url(#SVGID_61_)"/><linearGradient id="SVGID_62_" gradientUnits="userSpaceOnUse" x1="256.3" y1="25" x2="-218.9" y2="25"><stop offset="0" class="v"/><stop offset="7.964253e-02" class="y"/><stop offset="0.438" class="z"/><stop offset="0.7563" class="A"/><stop offset="1" class="u"/></linearGradient><polygon points="253.9 0 233 50 240.1 32.9 " fill="url(#SVGID_62_)"/><linearGradient id="SVGID_63_" gradientUnits="userSpaceOnUse" x1="429.9" y1="25" x2="231.9" y2="25"><stop offset="0" class="t"/><stop offset="1" class="u"/></linearGradient><polygon points="240.1 32.9 233 50 233 50 253.9 0 " fill="url(#SVGID_63_)"/><linearGradient id="SVGID_64_" gradientUnits="userSpaceOnUse" x1="429.9" y1="25" x2="231.9" y2="25"><stop offset="0" class="t"/><stop offset="1" class="u"/></linearGradient><polygon points="240.1 32.9 233 50 233 50 253.9 0 " fill="url(#SVGID_64_)"/><linearGradient id="SVGID_65_" gradientUnits="userSpaceOnUse" x1="256.3" y1="25" x2="-218.4" y2="25"><stop offset="0" class="v"/><stop offset="7.964253e-02" class="y"/><stop offset="0.438" class="z"/><stop offset="0.7563" class="A"/><stop offset="1" class="u"/></linearGradient><polygon points="240.1 32.9 233 50 233 50 253.9 0 " fill="url(#SVGID_65_)"/></g><g id="v65" class="a"><rect id="_x2D_----_2_" width="1140" height="50" fill="#C10A25"/><polygon points="253.7 0 253.7 0 232.8 50 232.8 50 240 32.9 " class="n"/><linearGradient id="SVGID_66_" gradientUnits="userSpaceOnUse" x1="1226" y1="34" x2="809.6" y2="34"><stop offset="0" class="B"/><stop offset="1" class="C"/></linearGradient><polygon points="1031 18 1017.6 50 1140 50 1140 18 " fill="url(#SVGID_66_)"/><linearGradient id="SVGID_67_" gradientUnits="userSpaceOnUse" x1="429.7" y1="25" x2="231.8" y2="25"><stop offset="0" class="D"/><stop offset="1" class="C"/></linearGradient><polygon points="419.8 18 427.4 0 253.7 0 240 32.9 232.8 50 344.2 50 357.6 18 " fill="url(#SVGID_67_)"/><linearGradient id="SVGID_68_" gradientUnits="userSpaceOnUse" x1="570.5" y1="9" x2="679.2" y2="9"><stop offset="0" class="D"/><stop offset="1" class="B"/></linearGradient><polygon points="669.3 18 676.9 0 578 0 570.5 18 " fill="url(#SVGID_68_)"/><linearGradient id="SVGID_69_" gradientUnits="userSpaceOnUse" x1="1031" y1="34" x2="820.1" y2="34"><stop offset="0" class="E"/><stop offset="1" class="D"/></linearGradient><polygon points="834.6 18 821.2 50 1017.6 50 1031 18 " fill="url(#SVGID_69_)"/><linearGradient id="SVGID_70_" gradientUnits="userSpaceOnUse" x1="669.3" y1="9" x2="844.4" y2="9"><stop offset="0" class="B"/><stop offset="1" class="B"/></linearGradient><polygon points="834.6 18 842.1 0 676.9 0 669.3 18 " fill="url(#SVGID_70_)"/><linearGradient id="SVGID_71_" gradientUnits="userSpaceOnUse" x1="580.4" y1="9" x2="419.8" y2="9"><stop offset="0" class="F"/><stop offset="1" class="G"/></linearGradient><polygon points="570.5 18 578 0 427.4 0 419.8 18 " fill="url(#SVGID_71_)"/><linearGradient id="SVGID_72_" gradientUnits="userSpaceOnUse" x1="1245.9" y1="9" x2="844.6" y2="9"><stop offset="0" class="F"/><stop offset="1" class="C"/></linearGradient><polygon points="1140 18 1140 0 1038.6 0 1031 18 " fill="url(#SVGID_72_)"/><linearGradient id="SVGID_73_" gradientUnits="userSpaceOnUse" x1="834.6" y1="9" x2="1040.9" y2="9"><stop offset="0" class="B"/><stop offset="1" stop-color="#9C0E1C"/></linearGradient><polygon points="1031 18 1038.6 0 842.1 0 834.6 18 " fill="url(#SVGID_73_)"/><linearGradient id="SVGID_74_" gradientUnits="userSpaceOnUse" x1="419.8" y1="34" x2="343.2" y2="34"><stop offset="0" class="H"/><stop offset="1" class="G"/></linearGradient><polygon points="357.6 18 344.2 50 406.4 50 419.8 18 " fill="url(#SVGID_74_)"/><linearGradient id="SVGID_75_" gradientUnits="userSpaceOnUse" x1="556.1" y1="34" x2="669.3" y2="34"><stop offset="0" class="B"/><stop offset="1" class="F"/></linearGradient><polygon points="570.5 18 557.1 50 655.9 50 669.3 18 " fill="url(#SVGID_75_)"/><linearGradient id="SVGID_76_" gradientUnits="userSpaceOnUse" x1="834.6" y1="34" x2="654.9" y2="34"><stop offset="0" class="F"/><stop offset="1" class="H"/></linearGradient><polygon points="669.3 18 655.9 50 821.2 50 834.6 18 " fill="url(#SVGID_76_)"/><linearGradient id="SVGID_77_" gradientUnits="userSpaceOnUse" x1="570.5" y1="34" x2="405.4" y2="34"><stop offset="0" class="F"/><stop offset="1" class="E"/></linearGradient><polygon points="419.8 18 406.4 50 557.1 50 570.5 18 " fill="url(#SVGID_77_)"/><linearGradient id="SVGID_78_" gradientUnits="userSpaceOnUse" x1="256.1" y1="25" x2="-219.1" y2="25"><stop offset="0" class="E"/><stop offset="1" class="C"/></linearGradient><polygon points="0 0 0 50 232.8 50 253.7 0 " fill="url(#SVGID_78_)"/></g><g id="v86" class="a"><rect id="_x2D_----" width="1140" height="50" class="I"/><polygon points="1018 50 821.5 50 656.3 50 557.4 50 406.8 50 344.5 50 233.1 50 0 50 0 50 1140 50 1140 50 " class="n"/><polygon points="1018 50 1140 50 1140 18 1031.4 18 " class="I"/><linearGradient id="SVGID_79_" gradientUnits="userSpaceOnUse" x1="430.1" y1="25" x2="232.1" y2="25"><stop offset="0" class="J"/><stop offset="8.515126e-02" stop-color="#944191"/><stop offset="1" stop-color="#944B96"/></linearGradient><polygon points="344.5 50 357.9 18 420.2 18 427.7 0 254 0 233.1 50 " fill="url(#SVGID_79_)"/><polygon points="669.7 18 677.2 0 578.4 0 570.9 18 " class="I"/><linearGradient id="SVGID_80_" gradientUnits="userSpaceOnUse" x1="1031.4" y1="34" x2="820.5" y2="34"><stop offset="0" stop-color="#751B74"/><stop offset="0.4766" stop-color="#7C287B"/><stop offset="1" stop-color="#823281"/></linearGradient><polygon points="834.9 18 821.5 50 1018 50 1031.4 18 " fill="url(#SVGID_80_)"/><polygon points="834.9 18 842.4 0 677.2 0 669.7 18 " fill="#8B358A"/><linearGradient id="SVGID_81_" gradientUnits="userSpaceOnUse" x1="580.7" y1="9" x2="420.2" y2="9"><stop offset="0" class="K"/><stop offset="0.5485" stop-color="#822B81"/><stop offset="1" class="L"/></linearGradient><polygon points="570.9 18 578.4 0 427.7 0 420.2 18 " fill="url(#SVGID_81_)"/><linearGradient id="SVGID_82_" gradientUnits="userSpaceOnUse" x1="1246" y1="9" x2="845.2" y2="9"><stop offset="0" class="K"/><stop offset="5.673105e-02" stop-color="#741C71"/><stop offset="0.6486" stop-color="#8B3688"/><stop offset="1" class="J"/></linearGradient><polygon points="1140 18 1140 0 1038.9 0 1031.4 18 " fill="url(#SVGID_82_)"/><polygon points="1031.4 18 1038.9 0 842.4 0 834.9 18 " fill="#71196F"/><linearGradient id="SVGID_83_" gradientUnits="userSpaceOnUse" x1="420.2" y1="34" x2="343.5" y2="34"><stop offset="0" stop-color="#792D77"/><stop offset="0.3951" stop-color="#823180"/><stop offset="1" class="L"/></linearGradient><polygon points="357.9 18 344.5 50 406.8 50 420.2 18 " fill="url(#SVGID_83_)"/><polygon points="570.9 18 557.4 50 656.3 50 669.7 18 " class="M"/><polygon points="669.7 18 656.3 50 821.5 50 834.9 18 " class="M"/><linearGradient id="SVGID_84_" gradientUnits="userSpaceOnUse" x1="570.9" y1="34" x2="405.8" y2="34"><stop offset="0" class="K"/><stop offset="0.1435" stop-color="#721B71"/><stop offset="1" class="N"/></linearGradient><polygon points="420.2 18 406.8 50 557.4 50 570.9 18 " fill="url(#SVGID_84_)"/><linearGradient id="SVGID_85_" gradientUnits="userSpaceOnUse" x1="256.4" y1="25" x2="-218.7" y2="25"><stop offset="0" class="N"/><stop offset="0.3438" stop-color="#8D3E8C"/><stop offset="0.7554" stop-color="#A0589D"/><stop offset="1" stop-color="#A762A3"/></linearGradient><polygon points="254 0 0 0 0 50 233.1 50 " fill="url(#SVGID_85_)"/></g><rect id="_x2D_----_1_" width="1140" height="50" style="display:none;fill:#944090"/></svg>
