<svg enable-background="new 0 0 1140 50" version="1.1" viewBox="0 0 1140 50" xml:space="preserve" xmlns="http://www.w3.org/2000/svg" x="0px" y="0px" width="1140" height="50"><g display="none"><linearGradient id="d" x1="-9.0949e-13" x2="1140" y1="25" y2="25" gradientUnits="userSpaceOnUse"><stop stop-color="#FAB900" offset="0"/><stop stop-color="#FFF164" offset="1"/></linearGradient><rect width="1140" height="50" fill="url(#d)"/><linearGradient id="cd" x1="1225.7" x2="809.32" y1="34" y2="34" gradientUnits="userSpaceOnUse"><stop stop-color="#FAB900" offset="0"/><stop stop-color="#FBC719" offset=".1504"/><stop stop-color="#FDD93A" offset=".3848"/><stop stop-color="#FEE651" offset=".61"/><stop stop-color="#FFEE5F" offset=".8201"/><stop stop-color="#FFF164" offset="1"/></linearGradient><polygon points="1030.7 18 1017.3 50 1140 50 1140 18" display="inline" fill="url(#cd)"/><linearGradient id="bt" x1="429.41" x2="231.44" y1="25" y2="25" gradientUnits="userSpaceOnUse"><stop stop-color="#FAB900" offset="0"/><stop stop-color="#FABD07" offset=".1661"/><stop stop-color="#FBC719" offset=".4019"/><stop stop-color="#FDD838" offset=".6792"/><stop stop-color="#FFF062" offset=".986"/><stop stop-color="#FFF164" offset="1"/></linearGradient><polygon points="419.5 18 427 0 253.4 0 239.6 32.9 232.5 50 343.8 50 357.3 18" display="inline" fill="url(#bt)"/><linearGradient id="bi" x1="570.19" x2="678.9" y1="9" y2="9" gradientUnits="userSpaceOnUse"><stop stop-color="#FFF164" offset="0"/><stop stop-color="#FAB900" offset="1"/></linearGradient><polygon points="669 18 676.5 0 577.7 0 570.2 18" display="inline" fill="url(#bi)"/><linearGradient id="bb" x1="1030.7" x2="819.8" y1="34" y2="34" gradientUnits="userSpaceOnUse"><stop stop-color="#FAB900" offset="0"/><stop stop-color="#FFF164" offset="1"/></linearGradient><polygon points="834.2 18 820.8 50 1017.3 50 1030.7 18" display="inline" fill="url(#bb)"/><linearGradient id="aq" x1="669.02" x2="844.12" y1="9" y2="9" gradientUnits="userSpaceOnUse"><stop stop-color="#FAB900" offset="0"/><stop stop-color="#FFF164" offset="1"/></linearGradient><polygon points="834.2 18 841.8 0 676.5 0 669 18" display="inline" fill="url(#aq)"/><linearGradient id="ak" x1="580.07" x2="419.53" y1="9" y2="9" gradientUnits="userSpaceOnUse"><stop stop-color="#FAB900" offset="0"/><stop stop-color="#FFF164" offset="1"/></linearGradient><polygon points="570.2 18 577.7 0 427 0 419.5 18" display="inline" fill="url(#ak)"/><linearGradient id="z" x1="1245.5" x2="844.32" y1="9" y2="9" gradientUnits="userSpaceOnUse"><stop stop-color="#FAB900" offset="0"/><stop stop-color="#FFF164" offset="1"/></linearGradient><polygon points="1140 18 1140 0 1038.2 0 1030.7 18" display="inline" fill="url(#z)"/><linearGradient id="o" x1="834.24" x2="1040.6" y1="9" y2="9" gradientUnits="userSpaceOnUse"><stop stop-color="#FAB900" offset="0"/><stop stop-color="#FFF164" offset="1"/></linearGradient><polygon points="1030.7 18 1038.2 0 841.8 0 834.2 18" display="inline" fill="url(#o)"/><linearGradient id="e" x1="419.53" x2="342.83" y1="34" y2="34" gradientUnits="userSpaceOnUse"><stop stop-color="#FAB900" offset="0"/><stop stop-color="#FABB03" offset=".2312"/><stop stop-color="#FBC10E" offset=".4248"/><stop stop-color="#FCCA1F" offset=".6047"/><stop stop-color="#FDD837" offset=".7763"/><stop stop-color="#FEEA57" offset=".9406"/><stop stop-color="#FFF164" offset="1"/></linearGradient><polygon points="357.3 18 343.8 50 406.1 50 419.5 18" display="inline" fill="url(#e)"/><linearGradient id="cn" x1="555.74" x2="669.02" y1="34" y2="34" gradientUnits="userSpaceOnUse"><stop stop-color="#FAB900" offset="0"/><stop stop-color="#FFF164" offset="1"/></linearGradient><polygon points="570.2 18 556.8 50 655.6 50 669 18" display="inline" fill="url(#cn)"/><linearGradient id="cm" x1="834.24" x2="654.58" y1="34" y2="34" gradientUnits="userSpaceOnUse"><stop stop-color="#FAB900" offset="0"/><stop stop-color="#FFF164" offset="1"/></linearGradient><polygon points="669 18 655.6 50 820.8 50 834.2 18" display="inline" fill="url(#cm)"/><linearGradient id="cl" x1="570.19" x2="405.08" y1="34" y2="34" gradientUnits="userSpaceOnUse"><stop stop-color="#FAB900" offset="0"/><stop stop-color="#FABB03" offset=".2445"/><stop stop-color="#FBC00D" offset=".4361"/><stop stop-color="#FBCA1E" offset=".6097"/><stop stop-color="#FDD735" offset=".7727"/><stop stop-color="#FEE753" offset=".9268"/><stop stop-color="#FFF164" offset="1"/></linearGradient><polygon points="419.5 18 406.1 50 556.8 50 570.2 18" display="inline" fill="url(#cl)"/><linearGradient id="ck" x1="255.77" x2="-219.41" y1="25" y2="25" gradientUnits="userSpaceOnUse"><stop stop-color="#FAB900" offset="0"/><stop stop-color="#FBC311" offset=".073225"/><stop stop-color="#FCD32F" offset=".2273"/><stop stop-color="#FEE046" offset=".3903"/><stop stop-color="#FEEA57" offset=".5639"/><stop stop-color="#FFEF61" offset=".7555"/><stop stop-color="#FFF164" offset="1"/></linearGradient><polygon points="253.4 0 0 0 0 50 232.5 50 239.6 32.9" display="inline" fill="url(#ck)"/></g><g display="none"><rect width="1140" height="50" display="inline" fill="#00993E"/><polygon points="1031.2 18 1017.7 50 1140 50 1140 18" display="inline" fill="#00993F"/><linearGradient id="cj" x1="1226.1" x2="809.75" y1="34" y2="34" gradientUnits="userSpaceOnUse"><stop stop-color="#00803D" offset="0"/><stop stop-color="#04A54A" offset="1"/></linearGradient><polygon points="1031.2 18 1017.7 50 1140 50 1140 18" display="inline" fill="url(#cj)"/><polygon points="420 18 427.5 0 253.8 0 240.1 32.9 232.9 50 344.3 50 357.7 18" display="inline" fill="#00993F"/><linearGradient id="ci" x1="429.84" x2="231.88" y1="25" y2="25" gradientUnits="userSpaceOnUse"><stop stop-color="#00993F" offset="0"/><stop stop-color="#04A54A" offset="1"/></linearGradient><polygon points="420 18 427.5 0 253.8 0 240.1 32.9 232.9 50 344.3 50 357.7 18" display="inline" fill="url(#ci)"/><polygon points="669.5 18 677 0 578.1 0 570.6 18" display="inline" fill="#00993F"/><linearGradient id="ch" x1="570.62" x2="679.33" y1="9" y2="9" gradientUnits="userSpaceOnUse"><stop stop-color="#17A14A" offset="0"/><stop stop-color="#00953E" offset="1"/></linearGradient><polygon points="669.5 18 677 0 578.1 0 570.6 18" display="inline" fill="url(#ch)"/><polygon points="834.7 18 821.3 50 1017.7 50 1031.2 18" display="inline" fill="#00993F"/><linearGradient id="cg" x1="1031.2" x2="820.23" y1="34" y2="34" gradientUnits="userSpaceOnUse"><stop stop-color="#007B3D" offset="0"/><stop stop-color="#009C3D" offset="1"/></linearGradient><polygon points="834.7 18 821.3 50 1017.7 50 1031.2 18" display="inline" fill="url(#cg)"/><polygon points="834.7 18 842.2 0 677 0 669.5 18" display="inline" fill="#00993F"/><linearGradient id="cf" x1="669.45" x2="844.56" y1="9" y2="9" gradientUnits="userSpaceOnUse"><stop stop-color="#00763C" offset="0"/><stop stop-color="#00993F" offset="1"/></linearGradient><polygon points="834.7 18 842.2 0 677 0 669.5 18" display="inline" fill="url(#cf)"/><polygon points="570.6 18 578.1 0 427.5 0 420 18" display="inline" fill="#00993F"/><linearGradient id="ce" x1="580.5" x2="419.96" y1="9" y2="9" gradientUnits="userSpaceOnUse"><stop stop-color="#00843E" offset="0"/><stop stop-color="#009140" offset="1"/></linearGradient><polygon points="570.6 18 578.1 0 427.5 0 420 18" display="inline" fill="url(#ce)"/><polygon points="1140 18 1140 0 1038.7 0 1031.2 18" display="inline" fill="#00993F"/><linearGradient id="cc" x1="1246" x2="844.76" y1="9" y2="9" gradientUnits="userSpaceOnUse"><stop stop-color="#007B3D" offset="0"/><stop stop-color="#00993F" offset="1"/></linearGradient><polygon points="1140 18 1140 0 1038.7 0 1031.2 18" display="inline" fill="url(#cc)"/><polygon points="1031.2 18 1038.7 0 842.2 0 834.7 18" display="inline" fill="#00993F"/><linearGradient id="cb" x1="834.68" x2="1041" y1="9" y2="9" gradientUnits="userSpaceOnUse"><stop stop-color="#00843E" offset="0"/><stop stop-color="#00713C" offset="1"/></linearGradient><polygon points="1031.2 18 1038.7 0 842.2 0 834.7 18" display="inline" fill="url(#cb)"/><polygon points="357.7 18 344.3 50 406.5 50 420 18" display="inline" fill="#00993F"/><linearGradient id="ca" x1="419.96" x2="343.27" y1="34" y2="34" gradientUnits="userSpaceOnUse"><stop stop-color="#007B3D" offset="0"/><stop stop-color="#009C3D" offset="1"/></linearGradient><polygon points="357.7 18 344.3 50 406.5 50 420 18" display="inline" fill="url(#ca)"/><polygon points="570.6 18 557.2 50 656 50 669.5 18" display="inline" fill="#00993F"/><linearGradient id="bz" x1="556.18" x2="669.45" y1="34" y2="34" gradientUnits="userSpaceOnUse"><stop stop-color="#008D3F" offset="0"/><stop stop-color="#007B3D" offset="1"/></linearGradient><polygon points="570.6 18 557.2 50 656 50 669.5 18" display="inline" fill="url(#bz)"/><polygon points="669.5 18 656 50 821.3 50 834.7 18" display="inline" fill="#00993F"/><linearGradient id="by" x1="834.68" x2="655.01" y1="34" y2="34" gradientUnits="userSpaceOnUse"><stop stop-color="#00843E" offset="0"/><stop stop-color="#00713C" offset="1"/></linearGradient><polygon points="669.5 18 656 50 821.3 50 834.7 18" display="inline" fill="url(#by)"/><polygon points="420 18 406.5 50 557.2 50 570.6 18" display="inline" fill="#00993F"/><linearGradient id="bx" x1="570.62" x2="405.52" y1="34" y2="34" gradientUnits="userSpaceOnUse"><stop stop-color="#007B3D" offset="0"/><stop stop-color="#00783D" offset="1"/></linearGradient><polygon points="420 18 406.5 50 557.2 50 570.6 18" display="inline" fill="url(#bx)"/><polygon points="253.8 0 0 0 0 50 232.9 50 240.1 32.9" display="inline" fill="#00993F"/><linearGradient id="bw" x1="256.2" x2="-218.97" y1="25" y2="25" gradientUnits="userSpaceOnUse"><stop stop-color="#00843E" offset="0"/><stop stop-color="#44AD52" offset="1"/></linearGradient><polygon points="253.8 0 0 0 0 50 232.9 50 240.1 32.9" display="inline" fill="url(#bw)"/></g><g display="none"><rect width="1140" height="50" display="inline" fill="#A2D2F3"/><polygon points="232.9 50 232.9 50 233.1 49.7" display="inline" fill="none"/><polygon points="253.8 0.1 253.9 0 253.7 0.5" display="inline" fill="none"/><linearGradient id="bv" x1="1226.2" x2="809.81" y1="34" y2="34" gradientUnits="userSpaceOnUse"><stop stop-color="#83C9F0" offset="0"/><stop stop-color="#BCDFF7" offset="1"/></linearGradient><polygon points="1031.2 18 1017.8 50 1140 50 1140 18" display="inline" fill="url(#bv)"/><linearGradient id="bu" x1="429.89" x2="231.93" y1="25.06" y2="25.06" gradientUnits="userSpaceOnUse"><stop stop-color="#A1D2F2" offset="0"/><stop stop-color="#BCDFF7" offset="1"/></linearGradient><polygon points="253.8 0.1 253.7 0.5 240.1 32.9 233.1 49.7 232.9 50 233 50 240.1 32.9" display="inline" fill="url(#bu)"/><linearGradient id="b" x1="429.89" x2="231.93" y1="25" y2="25" gradientUnits="userSpaceOnUse"><stop stop-color="#A1D2F2" offset="0"/><stop stop-color="#BCDFF7" offset="1"/></linearGradient><polygon points="420 18 427.5 0 253.9 0 233 50 344.3 50 357.8 18" display="inline" fill="url(#b)"/><polygon points="669.5 18 677 0 578.2 0 570.7 18" display="inline" fill="#BCDFF7"/><linearGradient id="bs" x1="1031.2" x2="820.29" y1="34" y2="34" gradientUnits="userSpaceOnUse"><stop stop-color="#76BDE9" offset="0"/><stop stop-color="#A1D2F2" offset="1"/></linearGradient><polygon points="834.7 18 821.3 50 1017.8 50 1031.2 18" display="inline" fill="url(#bs)"/><linearGradient id="br" x1="669.51" x2="844.61" y1="9" y2="9" gradientUnits="userSpaceOnUse"><stop stop-color="#A1D2F2" offset="0"/><stop stop-color="#83C9F0" offset="1"/></linearGradient><polygon points="834.7 18 842.2 0 677 0 669.5 18" display="inline" fill="url(#br)"/><linearGradient id="bq" x1="580.56" x2="420.01" y1="9" y2="9" gradientUnits="userSpaceOnUse"><stop stop-color="#63B8E8" offset="0"/><stop stop-color="#70BEEB" offset=".3639"/><stop stop-color="#90CDF1" offset="1"/></linearGradient><polygon points="570.7 18 578.2 0 427.5 0 420 18" display="inline" fill="url(#bq)"/><linearGradient id="bp" x1="1246" x2="844.81" y1="9" y2="9" gradientUnits="userSpaceOnUse"><stop stop-color="#76BDE9" offset="0"/><stop stop-color="#7CC0EA" offset=".2111"/><stop stop-color="#8DC8EE" offset=".4946"/><stop stop-color="#A9D6F3" offset=".8179"/><stop stop-color="#BCDFF7" offset="1"/></linearGradient><polygon points="1140 18 1140 0 1038.7 0 1031.2 18" display="inline" fill="url(#bp)"/><linearGradient id="bo" x1="834.73" x2="1041.1" y1="9" y2="9" gradientUnits="userSpaceOnUse"><stop stop-color="#76BDE9" offset="0"/><stop stop-color="#63B8E8" offset="1"/></linearGradient><polygon points="1031.2 18 1038.7 0 842.2 0 834.7 18" display="inline" fill="url(#bo)"/><linearGradient id="bn" x1="420.01" x2="343.32" y1="34" y2="34" gradientUnits="userSpaceOnUse"><stop stop-color="#8EC4EB" offset="0"/><stop stop-color="#A1D2F2" offset="1"/></linearGradient><polygon points="357.8 18 344.3 50 406.6 50 420 18" display="inline" fill="url(#bn)"/><linearGradient id="bm" x1="556.23" x2="669.51" y1="34" y2="34" gradientUnits="userSpaceOnUse"><stop stop-color="#83C9F0" offset="0"/><stop stop-color="#76BDE9" offset="1"/></linearGradient><polygon points="570.7 18 557.2 50 656.1 50 669.5 18" display="inline" fill="url(#bm)"/><linearGradient id="bl" x1="834.73" x2="655.07" y1="34" y2="34" gradientUnits="userSpaceOnUse"><stop stop-color="#63B8E8" offset="0"/><stop stop-color="#76BDE9" offset="1"/></linearGradient><polygon points="669.5 18 656.1 50 821.3 50 834.7 18" display="inline" fill="url(#bl)"/><linearGradient id="bk" x1="570.68" x2="405.57" y1="34" y2="34" gradientUnits="userSpaceOnUse"><stop stop-color="#76BDE9" offset="0"/><stop stop-color="#76BDE9" offset="1"/></linearGradient><polygon points="420 18 406.6 50 557.2 50 570.7 18" display="inline" fill="url(#bk)"/><linearGradient id="bj" x1="256.26" x2="-218.92" y1="25" y2="25" gradientUnits="userSpaceOnUse"><stop stop-color="#A1D2F2" offset="0"/><stop stop-color="#BCDFF7" offset="1"/></linearGradient><polygon points="253.7 0.5 253.9 0 0 0 0 50 232.9 50 233.1 49.7" display="inline" fill="url(#bj)"/><linearGradient id="bh" x1="429.89" x2="231.93" y1="25.13" y2="25.13" gradientUnits="userSpaceOnUse"><stop stop-color="#A1D2F2" offset="0"/><stop stop-color="#BCDFF7" offset="1"/></linearGradient><polygon points="240.1 32.9 253.7 0.5 233.1 49.7" display="inline" fill="url(#bh)"/><linearGradient id="bg" x1="256.26" x2="-218.92" y1="25.13" y2="25.13" gradientUnits="userSpaceOnUse"><stop stop-color="#A1D2F2" offset="0"/><stop stop-color="#BCDFF7" offset="1"/></linearGradient><polygon points="240.1 32.9 253.7 0.5 233.1 49.7" display="inline" fill="url(#bg)"/><linearGradient id="bf" x1="429.89" x2="231.93" y1=".060089" y2=".060089" gradientUnits="userSpaceOnUse"><stop stop-color="#A1D2F2" offset="0"/><stop stop-color="#BCDFF7" offset="1"/></linearGradient><polygon points="253.9 0 253.9 0 253.8 0.1" display="inline" fill="url(#bf)"/><linearGradient id="be" x1="256.25" x2="-146.58" y1=".060089" y2=".060089" gradientUnits="userSpaceOnUse"><stop stop-color="#A1D2F2" offset="0"/><stop stop-color="#BCDFF7" offset="1"/></linearGradient><polygon points="253.9 0 253.9 0 253.8 0.1" display="inline" fill="url(#be)"/><polygon points="253.8 0.1 240.1 32.9 233 50 233 50 253.9 0" display="inline" fill="url(#b)"/><polygon points="253.8 0.1 240.1 32.9 233 50 233 50 253.9 0" display="inline" fill="url(#b)"/><linearGradient id="bd" x1="256.25" x2="-218.46" y1="25" y2="25" gradientUnits="userSpaceOnUse"><stop stop-color="#A1D2F2" offset="0"/><stop stop-color="#BCDFF7" offset="1"/></linearGradient><polygon points="253.8 0.1 240.1 32.9 233 50 233 50 253.9 0" display="inline" fill="url(#bd)"/></g><g display="none"><rect width="1140" height="50" display="inline" fill="#EC6607"/><linearGradient id="bc" x1="1226.2" x2="809.82" y1="34" y2="34" gradientUnits="userSpaceOnUse"><stop stop-color="#ED7203" offset="0"/><stop stop-color="#F29232" offset="1"/></linearGradient><polygon points="1031.2 18 1017.8 50 1140 50 1140 18" display="inline" fill="url(#bc)"/><linearGradient id="a" x1="429.91" x2="231.95" y1="25" y2="25" gradientUnits="userSpaceOnUse"><stop stop-color="#ED7203" offset="0"/><stop stop-color="#F29232" offset="1"/></linearGradient><polygon points="253.9 0 240.1 32.9 233 50 233 50 240.1 32.9" display="inline" fill="url(#a)"/><polygon points="420 18 427.5 0 253.9 0 233 50 344.4 50 357.8 18" display="inline" fill="url(#a)"/><linearGradient id="ba" x1="570.69" x2="679.4" y1="9" y2="9" gradientUnits="userSpaceOnUse"><stop stop-color="#F29232" offset="0"/><stop stop-color="#ED7203" offset="1"/></linearGradient><polygon points="669.5 18 677 0 578.2 0 570.7 18" display="inline" fill="url(#ba)"/><linearGradient id="az" x1="1031.2" x2="820.3" y1="34" y2="34" gradientUnits="userSpaceOnUse"><stop stop-color="#E95A0C" offset="0"/><stop stop-color="#EA600A" offset=".6458"/><stop stop-color="#EB6608" offset="1"/></linearGradient><polygon points="834.7 18 821.3 50 1017.8 50 1031.2 18" display="inline" fill="url(#az)"/><linearGradient id="ay" x1="669.52" x2="844.63" y1="9" y2="9" gradientUnits="userSpaceOnUse"><stop stop-color="#EB6608" offset="0"/><stop stop-color="#E95A0C" offset="1"/></linearGradient><polygon points="834.7 18 842.3 0 677 0 669.5 18" display="inline" fill="url(#ay)"/><linearGradient id="ax" x1="580.57" x2="420.03" y1="9" y2="9" gradientUnits="userSpaceOnUse"><stop stop-color="#E95A0C" offset="0"/><stop stop-color="#EA610A" offset=".3863"/><stop stop-color="#EB6608" offset="1"/></linearGradient><polygon points="570.7 18 578.2 0 427.5 0 420 18" display="inline" fill="url(#ax)"/><linearGradient id="aw" x1="1246" x2="844.83" y1="9" y2="9" gradientUnits="userSpaceOnUse"><stop stop-color="#E95A0C" offset="0"/><stop stop-color="#EB6608" offset="1"/></linearGradient><polygon points="1140 18 1140 0 1038.7 0 1031.2 18" display="inline" fill="url(#aw)"/><linearGradient id="av" x1="834.75" x2="1041.1" y1="9" y2="9" gradientUnits="userSpaceOnUse"><stop stop-color="#E8550D" offset="0"/><stop stop-color="#E8550D" offset="1"/></linearGradient><polygon points="1031.2 18 1038.7 0 842.3 0 834.7 18" display="inline" fill="url(#av)"/><linearGradient id="au" x1="420.03" x2="343.34" y1="34" y2="34" gradientUnits="userSpaceOnUse"><stop stop-color="#EB6608" offset="0"/><stop stop-color="#ED7203" offset="1"/></linearGradient><polygon points="357.8 18 344.4 50 406.6 50 420 18" display="inline" fill="url(#au)"/><linearGradient id="at" x1="556.25" x2="669.52" y1="34" y2="34" gradientUnits="userSpaceOnUse"><stop stop-color="#ED7203" offset="0"/><stop stop-color="#E95A0C" offset="1"/></linearGradient><polygon points="570.7 18 557.3 50 656.1 50 669.5 18" display="inline" fill="url(#at)"/><linearGradient id="as" x1="834.75" x2="655.08" y1="34" y2="34" gradientUnits="userSpaceOnUse"><stop stop-color="#E74E0F" offset="0"/><stop stop-color="#E95A0C" offset="1"/></linearGradient><polygon points="669.5 18 656.1 50 821.3 50 834.7 18" display="inline" fill="url(#as)"/><linearGradient id="ar" x1="570.69" x2="405.59" y1="34" y2="34" gradientUnits="userSpaceOnUse"><stop stop-color="#E8550D" offset="0"/><stop stop-color="#EA6109" offset="1"/></linearGradient><polygon points="420 18 406.6 50 557.3 50 570.7 18" display="inline" fill="url(#ar)"/><linearGradient id="c" x1="256.27" x2="-218.9" y1="25" y2="25" gradientUnits="userSpaceOnUse"><stop stop-color="#E95A0C" offset="0"/><stop stop-color="#EA6111" offset=".079643"/><stop stop-color="#EE7C23" offset=".438"/><stop stop-color="#F18C2E" offset=".7563"/><stop stop-color="#F29232" offset="1"/></linearGradient><polygon points="0 0 0 50 233 50 253.9 0" display="inline" fill="url(#c)"/><polygon points="253.9 0 233 50 240.1 32.9" display="inline" fill="url(#a)"/><polygon points="253.9 0 233 50 240.1 32.9" display="inline" fill="url(#c)"/><polygon points="240.1 32.9 233 50 233 50 253.9 0" display="inline" fill="url(#a)"/><polygon points="240.1 32.9 233 50 233 50 253.9 0" display="inline" fill="url(#a)"/><linearGradient id="ap" x1="256.27" x2="-218.45" y1="25" y2="25" gradientUnits="userSpaceOnUse"><stop stop-color="#E95A0C" offset="0"/><stop stop-color="#EA6111" offset=".079643"/><stop stop-color="#EE7C23" offset=".438"/><stop stop-color="#F18C2E" offset=".7563"/><stop stop-color="#F29232" offset="1"/></linearGradient><polygon points="240.1 32.9 233 50 233 50 253.9 0" display="inline" fill="url(#ap)"/></g><g display="none"><rect width="1140" height="50" display="inline" fill="#C10A25"/><polygon points="253.7 0 253.7 0 232.8 50 232.8 50 240 32.9" display="inline" fill="none"/><linearGradient id="ao" x1="1226" x2="809.64" y1="34" y2="34" gradientUnits="userSpaceOnUse"><stop stop-color="#C00B25" offset="0"/><stop stop-color="#E6333F" offset="1"/></linearGradient><polygon points="1031 18 1017.6 50 1140 50 1140 18" display="inline" fill="url(#ao)"/><linearGradient id="an" x1="429.73" x2="231.76" y1="25" y2="25" gradientUnits="userSpaceOnUse"><stop stop-color="#D2072A" offset="0"/><stop stop-color="#E6333F" offset="1"/></linearGradient><polygon points="419.8 18 427.4 0 253.7 0 240 32.9 232.8 50 344.2 50 357.6 18" display="inline" fill="url(#an)"/><linearGradient id="am" x1="570.51" x2="679.22" y1="9" y2="9" gradientUnits="userSpaceOnUse"><stop stop-color="#D2072A" offset="0"/><stop stop-color="#C00B25" offset="1"/></linearGradient><polygon points="669.3 18 676.9 0 578 0 570.5 18" display="inline" fill="url(#am)"/><linearGradient id="al" x1="1031" x2="820.12" y1="34" y2="34" gradientUnits="userSpaceOnUse"><stop stop-color="#AE0D21" offset="0"/><stop stop-color="#D2072A" offset="1"/></linearGradient><polygon points="834.6 18 821.2 50 1017.6 50 1031 18" display="inline" fill="url(#al)"/><linearGradient id="aj" x1="669.34" x2="844.44" y1="9" y2="9" gradientUnits="userSpaceOnUse"><stop stop-color="#C00B25" offset="0"/><stop stop-color="#C00B25" offset="1"/></linearGradient><polygon points="834.6 18 842.1 0 676.9 0 669.3 18" display="inline" fill="url(#aj)"/><linearGradient id="ai" x1="580.39" x2="419.85" y1="9" y2="9" gradientUnits="userSpaceOnUse"><stop stop-color="#A50D1F" offset="0"/><stop stop-color="#C90928" offset="1"/></linearGradient><polygon points="570.5 18 578 0 427.4 0 419.8 18" display="inline" fill="url(#ai)"/><linearGradient id="ah" x1="1245.9" x2="844.65" y1="9" y2="9" gradientUnits="userSpaceOnUse"><stop stop-color="#A50D1F" offset="0"/><stop stop-color="#E6333F" offset="1"/></linearGradient><polygon points="1140 18 1140 0 1038.6 0 1031 18" display="inline" fill="url(#ah)"/><linearGradient id="ag" x1="834.56" x2="1040.9" y1="9" y2="9" gradientUnits="userSpaceOnUse"><stop stop-color="#C00B25" offset="0"/><stop stop-color="#9C0E1C" offset="1"/></linearGradient><polygon points="1031 18 1038.6 0 842.1 0 834.6 18" display="inline" fill="url(#ag)"/><linearGradient id="af" x1="419.85" x2="343.15" y1="34" y2="34" gradientUnits="userSpaceOnUse"><stop stop-color="#B70C23" offset="0"/><stop stop-color="#C90928" offset="1"/></linearGradient><polygon points="357.6 18 344.2 50 406.4 50 419.8 18" display="inline" fill="url(#af)"/><linearGradient id="ae" x1="556.07" x2="669.34" y1="34" y2="34" gradientUnits="userSpaceOnUse"><stop stop-color="#C00B25" offset="0"/><stop stop-color="#A50D1F" offset="1"/></linearGradient><polygon points="570.5 18 557.1 50 655.9 50 669.3 18" display="inline" fill="url(#ae)"/><linearGradient id="ad" x1="834.56" x2="654.9" y1="34" y2="34" gradientUnits="userSpaceOnUse"><stop stop-color="#A50D1F" offset="0"/><stop stop-color="#B70C23" offset="1"/></linearGradient><polygon points="669.3 18 655.9 50 821.2 50 834.6 18" display="inline" fill="url(#ad)"/><linearGradient id="ac" x1="570.51" x2="405.4" y1="34" y2="34" gradientUnits="userSpaceOnUse"><stop stop-color="#A50D1F" offset="0"/><stop stop-color="#AE0D21" offset="1"/></linearGradient><polygon points="419.8 18 406.4 50 557.1 50 570.5 18" display="inline" fill="url(#ac)"/><linearGradient id="ab" x1="256.09" x2="-219.08" y1="25" y2="25" gradientUnits="userSpaceOnUse"><stop stop-color="#AE0D21" offset="0"/><stop stop-color="#E6333F" offset="1"/></linearGradient><polygon points="0 0 0 50 232.8 50 253.7 0" display="inline" fill="url(#ab)"/></g><rect width="1140" height="50" fill="#004F9E"/><polygon points="255.6 0.1 255.6 0 255.6 0" fill="none"/><polygon points="234.8 50 234.8 50 234.9 49.9" fill="none"/><polygon points="255.6 0 255.6 0" fill="#004F9E"/><polygon points="1027.4 18 1014 50 1140 50 1140 18" fill="#004F9E"/><linearGradient id="aa" x1="1220.7" x2="807.71" y1="34" y2="34" gradientUnits="userSpaceOnUse"><stop stop-color="#164193" offset="0"/><stop stop-color="#006EB6" offset="1"/></linearGradient><polygon points="1027.4 18 1014 50 1140 50 1140 18" fill="url(#aa)"/><polygon points="420.6 18 428 0 255.6 0 255.6 0.1 234.9 49.9 234.8 50 345.4 50 358.8 18" fill="#004F9E"/><linearGradient id="y" x1="430.36" x2="233.83" y1="25" y2="25" gradientUnits="userSpaceOnUse"><stop stop-color="#004F9E" offset="0"/><stop stop-color="#006EB6" offset="1"/></linearGradient><polygon points="420.6 18 428 0 255.6 0 255.6 0.1 234.9 49.9 234.8 50 345.4 50 358.8 18" fill="url(#y)"/><polygon points="668.2 18 675.7 0 577.6 0 570.1 18" fill="#004F9E"/><linearGradient id="x" x1="570.13" x2="678.06" y1="9" y2="9" gradientUnits="userSpaceOnUse"><stop stop-color="#006EB6" offset="0"/><stop stop-color="#004F9E" offset="1"/></linearGradient><polygon points="668.2 18 675.7 0 577.6 0 570.1 18" fill="url(#x)"/><polygon points="832.3 18 819 50 1014 50 1027.4 18" fill="#004F9E"/><linearGradient id="w" x1="1027.4" x2="817.95" y1="34" y2="34" gradientUnits="userSpaceOnUse"><stop stop-color="#153D89" offset="0"/><stop stop-color="#0056A3" offset="1"/></linearGradient><polygon points="832.3 18 819 50 1014 50 1027.4 18" fill="url(#w)"/><polygon points="832.3 18 839.7 0 675.7 0 668.2 18" fill="#004F9E"/><linearGradient id="v" x1="668.25" x2="842.09" y1="9" y2="9" gradientUnits="userSpaceOnUse"><stop stop-color="#194092" offset="0"/><stop stop-color="#004F9E" offset="1"/></linearGradient><polygon points="832.3 18 839.7 0 675.7 0 668.2 18" fill="url(#v)"/><polygon points="570.1 18 577.6 0 428 0 420.6 18" fill="#004F9E"/><linearGradient id="u" x1="579.94" x2="420.55" y1="9" y2="9" gradientUnits="userSpaceOnUse"><stop stop-color="#1E3480" offset="0"/><stop stop-color="#014898" offset="1"/></linearGradient><polygon points="570.1 18 577.6 0 428 0 420.6 18" fill="url(#u)"/><polygon points="1140 18 1140 0 1034.8 0 1027.4 18" fill="#004F9E"/><linearGradient id="t" x1="1240.4" x2="842.46" y1="9" y2="9" gradientUnits="userSpaceOnUse"><stop stop-color="#1E3480" offset="0"/><stop stop-color="#004F9E" offset="1"/></linearGradient><polygon points="1140 18 1140 0 1034.8 0 1027.4 18" fill="url(#t)"/><polygon points="1027.4 18 1034.8 0 839.7 0 832.3 18" fill="#004F9E"/><linearGradient id="s" x1="832.28" x2="1037.2" y1="9" y2="9" gradientUnits="userSpaceOnUse"><stop stop-color="#014898" offset="0"/><stop stop-color="#1E3480" offset="1"/></linearGradient><polygon points="1027.4 18 1034.8 0 839.7 0 832.3 18" fill="url(#s)"/><polygon points="358.8 18 345.4 50 407.2 50 420.6 18" fill="#004F9E"/><linearGradient id="r" x1="420.55" x2="344.42" y1="34" y2="34" gradientUnits="userSpaceOnUse"><stop stop-color="#164193" offset="0"/><stop stop-color="#004F9E" offset="1"/></linearGradient><polygon points="358.8 18 345.4 50 407.2 50 420.6 18" fill="url(#r)"/><polygon points="570.1 18 556.8 50 654.9 50 668.2 18" fill="#004F9E"/><linearGradient id="q" x1="555.79" x2="668.25" y1="34" y2="34" gradientUnits="userSpaceOnUse"><stop stop-color="#004F9E" offset="0"/><stop stop-color="#213A8E" offset="1"/></linearGradient><polygon points="570.1 18 556.8 50 654.9 50 668.2 18" fill="url(#q)"/><polygon points="668.2 18 654.9 50 819 50 832.3 18" fill="#004F9E"/><linearGradient id="p" x1="832.28" x2="653.91" y1="34" y2="34" gradientUnits="userSpaceOnUse"><stop stop-color="#164193" offset="0"/><stop stop-color="#1E3480" offset="1"/></linearGradient><polygon points="668.2 18 654.9 50 819 50 832.3 18" fill="url(#p)"/><polygon points="420.6 18 407.2 50 556.8 50 570.1 18" fill="#004F9E"/><linearGradient id="n" x1="570.13" x2="406.22" y1="34" y2="34" gradientUnits="userSpaceOnUse"><stop stop-color="#1E3480" offset="0"/><stop stop-color="#164193" offset="1"/></linearGradient><polygon points="420.6 18 407.2 50 556.8 50 570.1 18" fill="url(#n)"/><polygon points="255.6 0.1 255.6 0 255.6 0 0 0 0 50 234.8 50 234.9 49.9" fill="#004F9E"/><linearGradient id="m" x1="257.97" x2="-213.32" y1="25" y2="25" gradientUnits="userSpaceOnUse"><stop stop-color="#1B3F91" offset="0"/><stop stop-color="#006EB6" offset="1"/></linearGradient><polygon points="255.6 0.1 255.6 0 255.6 0 0 0 0 50 234.8 50 234.9 49.9" fill="url(#m)"/><g display="none"><rect width="1140" height="50" display="inline" fill="#944090"/><polygon points="1018 50 821.5 50 656.3 50 557.4 50 406.8 50 344.5 50 233.1 50 0 50 0 50 1140 50 1140 50" display="inline" fill="none"/><polygon points="1018 50 1140 50 1140 18 1031.4 18" display="inline" fill="#944090"/><linearGradient id="l" x1="430.07" x2="232.11" y1="25" y2="25" gradientUnits="userSpaceOnUse"><stop stop-color="#944090" offset="0"/><stop stop-color="#944191" offset=".085151"/><stop stop-color="#944B96" offset="1"/></linearGradient><polygon points="344.5 50 357.9 18 420.2 18 427.7 0 254 0 233.1 50" display="inline" fill="url(#l)"/><polygon points="669.7 18 677.2 0 578.4 0 570.9 18" display="inline" fill="#944090"/><linearGradient id="k" x1="1031.4" x2="820.47" y1="34" y2="34" gradientUnits="userSpaceOnUse"><stop stop-color="#751B74" offset="0"/><stop stop-color="#7C287B" offset=".4766"/><stop stop-color="#823281" offset="1"/></linearGradient><polygon points="834.9 18 821.5 50 1018 50 1031.4 18" display="inline" fill="url(#k)"/><polygon points="834.9 18 842.4 0 677.2 0 669.7 18" display="inline" fill="#8B358A"/><linearGradient id="j" x1="580.73" x2="420.19" y1="9" y2="9" gradientUnits="userSpaceOnUse"><stop stop-color="#71196F" offset="0"/><stop stop-color="#822B81" offset=".5485"/><stop stop-color="#8B358A" offset="1"/></linearGradient><polygon points="570.9 18 578.4 0 427.7 0 420.2 18" display="inline" fill="url(#j)"/><linearGradient id="i" x1="1246" x2="845.15" y1="9" y2="9" gradientUnits="userSpaceOnUse"><stop stop-color="#71196F" offset="0"/><stop stop-color="#741C71" offset=".056731"/><stop stop-color="#8B3688" offset=".6486"/><stop stop-color="#944090" offset="1"/></linearGradient><polygon points="1140 18 1140 0 1038.9 0 1031.4 18" display="inline" fill="url(#i)"/><polygon points="1031.4 18 1038.9 0 842.4 0 834.9 18" display="inline" fill="#71196F"/><linearGradient id="h" x1="420.19" x2="343.5" y1="34" y2="34" gradientUnits="userSpaceOnUse"><stop stop-color="#792D77" offset="0"/><stop stop-color="#823180" offset=".3951"/><stop stop-color="#8B358A" offset="1"/></linearGradient><polygon points="357.9 18 344.5 50 406.8 50 420.2 18" display="inline" fill="url(#h)"/><polygon points="570.9 18 557.4 50 656.3 50 669.7 18" display="inline" fill="#79237B"/><polygon points="669.7 18 656.3 50 821.5 50 834.9 18" display="inline" fill="#79237B"/><linearGradient id="g" x1="570.85" x2="405.75" y1="34" y2="34" gradientUnits="userSpaceOnUse"><stop stop-color="#71196F" offset="0"/><stop stop-color="#721B71" offset=".1435"/><stop stop-color="#79237B" offset="1"/></linearGradient><polygon points="420.2 18 406.8 50 557.4 50 570.9 18" display="inline" fill="url(#g)"/><linearGradient id="f" x1="256.43" x2="-218.67" y1="25" y2="25" gradientUnits="userSpaceOnUse"><stop stop-color="#79237B" offset="0"/><stop stop-color="#8D3E8C" offset=".3438"/><stop stop-color="#A0589D" offset=".7554"/><stop stop-color="#A762A3" offset="1"/></linearGradient><polygon points="254 0 0 0 0 50 233.1 50" display="inline" fill="url(#f)"/></g><rect width="1140" height="50" display="none" fill="#944090"/></svg>
